<svg width="1200" height="680" viewBox="0 0 1200 680" fill="none" xmlns="http://www.w3.org/2000/svg">
  <rect width="1200" height="680" rx="28" fill="#0f172a"/>
  <rect x="40" y="40" width="1120" height="120" rx="24" fill="#0f172a" stroke="#0fc4d2" stroke-width="2"/>
  <circle cx="90" cy="100" r="24" fill="#22d3ee"/>
  <rect x="130" y="72" width="260" height="16" rx="8" fill="#94a3b8"/>
  <rect x="130" y="98" width="180" height="12" rx="6" fill="#64748b"/>
  <rect x="40" y="196" width="1120" height="44" rx="16" fill="#0f172a" stroke="#334155" stroke-width="2"/>
  <rect x="60" y="222" width="380" height="24" rx="12" fill="#94a3b8"/>
  <rect x="60" y="264" width="520" height="340" rx="28" fill="#1e293b" stroke="#334155" stroke-width="2"/>
  <rect x="84" y="292" width="320" height="24" rx="12" fill="#22d3ee"/>
  <rect x="84" y="330" width="620" height="18" rx="9" fill="#94a3b8"/>
  <rect x="84" y="360" width="520" height="18" rx="9" fill="#94a3b8" opacity="0.7"/>
  <rect x="84" y="390" width="420" height="18" rx="9" fill="#94a3b8" opacity="0.7"/>
  <g opacity="0.9">
    <rect x="740" y="264" width="320" height="140" rx="20" fill="#111827" stroke="#334155" stroke-width="2"/>
    <rect x="760" y="292" width="260" height="20" rx="10" fill="#22d3ee"/>
    <rect x="760" y="328" width="220" height="14" rx="7" fill="#94a3b8"/>
    <rect x="760" y="354" width="180" height="14" rx="7" fill="#94a3b8" opacity="0.7"/>
    <rect x="760" y="382" width="260" height="14" rx="7" fill="#94a3b8" opacity="0.7"/>
  </g>
  <rect x="60" y="630" width="153" height="18" rx="9" fill="#334155"/>
  <rect x="240" y="630" width="96" height="18" rx="9" fill="#334155"/>
  <rect x="360" y="630" width="116" height="18" rx="9" fill="#334155"/>
  <rect x="76" y="474" width="520" height="112" rx="24" fill="#111827" stroke="#334155" stroke-width="2"/>
  <rect x="100" y="500" width="240" height="18" rx="9" fill="#22d3ee"/>
  <rect x="100" y="532" width="420" height="14" rx="7" fill="#94a3b8"/>
  <rect x="100" y="558" width="280" height="14" rx="7" fill="#94a3b8" opacity="0.7"/>
  <rect x="760" y="500" width="320" height="80" rx="24" fill="#0f172a" stroke="#334155" stroke-width="2"/>
  <rect x="780" y="522" width="120" height="16" rx="8" fill="#22d3ee"/>
  <rect x="780" y="550" width="200" height="14" rx="7" fill="#94a3b8"/>
  <rect x="780" y="576" width="180" height="14" rx="7" fill="#94a3b8" opacity="0.7"/>
</svg>
